<svg height="464pt" viewBox="0 0 464 464" width="464pt" xmlns="http://www.w3.org/2000/svg"><path d="m184 255.511719c22.175781-2.238281 42.519531-13.6875 56-31.679688v-39.832031h-56zm0 0"/><path d="m352 288h16v16h-16zm0 0"/><path d="m352 352h16v16h-16zm0 0"/><path d="m184 96.449219v71.550781h56c0-8.40625 4.367188-15.792969 10.929688-20.078125-10.648438-28.394531-36.777344-48.425781-66.929688-51.472656zm0 0"/><path d="m288 288h16v16h-16zm0 0"/><path d="m288 416h16v16h-16zm0 0"/><path d="m168 255.601562v-159.195312c-40.367188 4.035156-72 38.1875-72 79.59375s31.632812 75.566406 72 79.601562zm0 0"/><path d="m352 416h16v16h-16zm0 0"/><path d="m456 160h-192c-4.414062 0-8 3.585938-8 8v288c0 4.414062 3.585938 8 8 8h192c4.414062 0 8-3.585938 8-8v-288c0-4.40625-3.585938-8-8-8zm-136 288h-48v-48h48zm0-64h-48v-48h48zm0-64h-48v-48h48zm64 128h-48v-48h48zm0-64h-48v-48h48zm0-64h-48v-48h48zm64 128h-48v-48h48zm0-64h-48v-48h48zm0-64h-48v-48h48zm0-64h-176v-80h176zm0 0"/><path d="m288 192h144v48h-144zm0 0"/><path d="m48 288v-288h-24c-13.230469 0-24 10.769531-24 24v272.015625c6.6875-5.03125 15-8.015625 24-8.015625zm0 0"/><path d="m288 352h16v16h-16zm0 0"/><path d="m416 288h16v16h-16zm0 0"/><path d="m416 416h16v16h-16zm0 0"/><path d="m416 352h16v16h-16zm0 0"/><path d="m80 176c0-52.9375 43.0625-96 96-96 40.761719 0 77.046875 26.023438 90.480469 64h165.519531v-80h-368v240h-40c-13.230469 0-24 10.769531-24 24s10.769531 24 24 24h216v-104.550781c-17.433594 15.597656-40.160156 24.550781-64 24.550781-52.9375 0-96-43.0625-96-96zm224-96h112v16h-112zm-16 32h128v16h-128zm0 0"/></svg>